<?xml version="1.0" encoding="utf-8"?>
<!-- Generator: Adobe Illustrator 22.1.0, SVG Export Plug-In . SVG Version: 6.00 Build 0)  -->
<svg version="1.1" id="Слой_1" xmlns="http://www.w3.org/2000/svg" xmlns:xlink="http://www.w3.org/1999/xlink" x="0px" y="0px"
	 viewBox="0 0 20 20" style="enable-background:new 0 0 20 20;" xml:space="preserve">
<style type="text/css">
	.st0{fill:#FFFFFF;}
</style>
<path class="st0" d="M19.6,4.9c-0.4-0.5-1-0.7-1.6-0.7H5.2L4.8,2.6c-0.2-0.9-1-1.5-2-1.5H0.7C0.3,1.2,0,1.5,0,1.8
	c0,0.3,0.3,0.6,0.7,0.6h2.1c0.3,0,0.6,0.2,0.7,0.5L6,12.7c0.2,0.9,1,1.5,2,1.5h8.4c0.9,0,1.7-0.6,2-1.5l1.6-6.2
	C20.1,5.9,20,5.3,19.6,4.9L19.6,4.9z M18.7,6.2l-1.6,6.2c-0.1,0.3-0.4,0.5-0.7,0.5H8c-0.3,0-0.6-0.2-0.7-0.5l-1.8-7H18
	c0.2,0,0.4,0.1,0.5,0.3C18.7,5.8,18.7,6,18.7,6.2L18.7,6.2z"/>
<path class="st0" d="M8.4,15c-1.2,0-2.2,0.9-2.2,2.1s1,2.1,2.2,2.1c1.2,0,2.2-0.9,2.2-2.1S9.6,15,8.4,15L8.4,15z M8.4,17.9
	c-0.5,0-0.9-0.4-0.9-0.8c0-0.5,0.4-0.8,0.9-0.8c0.5,0,0.9,0.4,0.9,0.8C9.3,17.5,8.9,17.9,8.4,17.9z"/>
<path class="st0" d="M15.7,15c-1.2,0-2.2,0.9-2.2,2.1c0,1.1,1,2.1,2.2,2.1c1.2,0,2.2-0.9,2.2-2.1C17.9,15.9,16.9,15,15.7,15z
	 M15.7,17.9c-0.5,0-0.9-0.4-0.9-0.8c0-0.5,0.4-0.8,0.9-0.8c0.5,0,0.9,0.4,0.9,0.8C16.6,17.5,16.2,17.9,15.7,17.9z"/>
</svg>
